<?xml version="1.0" standalone="no"?>
<!DOCTYPE svg PUBLIC "-//W3C//DTD SVG 20010904//EN"
 "http://www.w3.org/TR/2001/REC-SVG-20010904/DTD/svg10.dtd">
<svg version="1.0" xmlns="http://www.w3.org/2000/svg"
 width="1200.000000pt" height="1200.000000pt" viewBox="0 0 1200.000000 1200.000000"
 preserveAspectRatio="xMidYMid meet">

<g transform="translate(0.000000,1200.000000) scale(0.100000,-0.100000)"
fill="#000000" stroke="none">
<path d="M3345 10524 c-11 -2 -45 -9 -75 -15 -159 -31 -329 -167 -408 -326
-66 -133 -74 -189 -70 -484 3 -286 9 -310 82 -381 54 -52 100 -72 184 -76 63
-4 79 -1 127 23 30 14 70 44 89 67 56 65 68 113 75 294 6 156 7 162 36 209 20
32 45 56 74 72 l44 23 2469 0 c2687 0 2506 4 2566 -53 50 -46 59 -82 65 -247
5 -182 18 -227 83 -299 135 -150 378 -119 470 61 37 73 47 169 41 393 -6 221
-16 274 -73 390 -86 177 -255 307 -439 340 -68 12 -479 14 -2700 13 -1441 0
-2629 -2 -2640 -4z"/>
<path d="M3040 8684 c-195 -42 -355 -198 -399 -389 -6 -27 -81 -693 -167
-1480 -172 -1584 -167 -1497 -103 -1596 56 -87 133 -134 237 -145 146 -16 287
80 327 220 8 28 71 580 140 1226 70 646 130 1183 133 1192 5 11 170 -397 472
-1164 258 -655 477 -1198 492 -1219 59 -81 190 -138 287 -124 106 15 199 81
244 173 13 26 228 566 477 1200 249 634 455 1150 457 1148 2 -2 62 -541 133
-1197 73 -676 136 -1217 145 -1246 21 -69 96 -152 167 -184 78 -35 193 -33
265 4 114 59 176 157 175 280 -1 95 -298 2822 -317 2911 -42 194 -201 349
-400 391 -88 18 -132 18 -220 0 -139 -29 -271 -122 -337 -235 -15 -25 -197
-480 -406 -1010 -209 -531 -388 -984 -397 -1008 -10 -24 -21 -40 -25 -35 -4 4
-182 451 -395 993 -213 542 -401 1011 -418 1043 -38 72 -143 173 -220 210
-110 54 -227 67 -347 41z"/>
<path d="M6940 8609 c-60 -27 -107 -74 -136 -134 l-24 -50 0 -1555 c0 -1494 1
-1557 19 -1595 25 -53 76 -103 131 -129 45 -21 52 -21 950 -21 l905 0 100 28
c324 89 584 312 694 597 94 242 77 518 -46 751 -79 150 -222 299 -362 379
-105 60 -101 52 -57 100 86 96 171 255 209 395 41 149 42 349 2 499 -86 327
-334 595 -650 703 -151 51 -182 53 -964 53 -708 0 -727 -1 -771 -21z m1505
-493 c305 -81 452 -425 297 -695 -53 -93 -142 -170 -243 -213 -51 -21 -73 -22
-359 -28 -282 -5 -308 -7 -350 -26 -53 -25 -112 -82 -136 -133 -28 -55 -31
-168 -6 -223 27 -61 74 -112 130 -140 46 -23 53 -23 477 -29 401 -5 434 -6
492 -26 351 -117 458 -556 200 -814 -66 -66 -171 -123 -256 -139 -32 -6 -316
-10 -712 -10 l-659 0 0 1245 0 1245 538 0 c416 0 548 -3 587 -14z"/>
<path d="M2332 4524 c-98 -49 -122 -104 -143 -339 -21 -234 12 -450 92 -615
33 -65 60 -102 118 -161 84 -84 158 -126 277 -156 65 -17 242 -18 3304 -18
3135 0 3237 1 3305 19 120 32 193 73 276 156 60 59 85 93 117 160 93 193 120
434 81 720 -19 144 -46 192 -131 234 -43 22 -66 26 -133 26 -69 0 -90 -4 -135
-27 -30 -16 -68 -45 -84 -66 l-31 -39 -5 -201 c-5 -199 -6 -203 -34 -255 -32
-57 -79 -98 -135 -118 -54 -20 -6129 -19 -6184 0 -57 21 -100 58 -132 117 -29
53 -30 56 -35 249 -6 217 -11 237 -75 286 -51 39 -101 53 -186 54 -61 0 -85
-5 -127 -26z"/>
<path d="M2312 2370 c-18 -11 -39 -35 -46 -53 -13 -30 -97 -697 -96 -763 0
-45 37 -76 85 -72 67 5 71 18 110 345 19 161 35 300 35 310 0 34 19 -6 144
-297 70 -162 136 -303 147 -312 29 -25 73 -22 102 5 16 14 73 133 152 320 70
164 130 296 132 294 4 -5 73 -569 73 -600 0 -28 45 -67 79 -67 43 0 60 9 76
40 12 24 9 68 -31 400 -24 205 -50 384 -57 399 -30 62 -130 91 -197 56 -39
-20 -52 -46 -170 -323 -57 -133 -107 -239 -111 -235 -4 5 -53 113 -109 242
-55 129 -108 247 -116 263 -34 65 -135 89 -202 48z"/>
<path d="M3374 2365 l-25 -25 3 -288 3 -287 32 -67 c39 -82 100 -145 179 -184
54 -26 68 -29 164 -29 94 0 111 3 160 27 107 53 188 159 210 277 5 29 10 161
10 293 0 289 -6 308 -90 308 -15 0 -38 -9 -51 -19 -24 -19 -24 -20 -29 -303
l-5 -285 -28 -41 c-93 -141 -291 -130 -368 19 -17 35 -19 61 -19 299 0 314 -4
330 -91 330 -19 0 -40 -10 -55 -25z"/>
<path d="M4214 2365 l-25 -25 3 -318 3 -317 27 -50 c33 -63 88 -118 147 -147
42 -21 63 -23 227 -26 l182 -3 21 27 c26 33 27 74 2 105 -18 23 -26 24 -184
29 -184 6 -201 11 -242 81 -19 32 -20 55 -23 329 -3 284 -4 296 -24 317 -30
32 -81 31 -114 -2z"/>
<path d="M4642 2367 c-30 -32 -29 -87 1 -115 22 -20 33 -22 160 -22 l137 0 0
-349 c0 -337 1 -349 21 -375 15 -19 30 -26 54 -26 94 0 95 4 95 410 l0 340
135 0 c131 0 137 1 160 25 16 15 25 36 25 55 0 19 -9 40 -25 55 l-24 25 -359
0 -359 0 -21 -23z"/>
<path d="M5491 2364 c-20 -26 -21 -37 -21 -434 l0 -407 23 -21 c32 -30 87 -29
115 1 22 23 22 26 22 433 l0 411 -23 21 c-34 32 -89 30 -116 -4z"/>
<path d="M5735 2365 l-25 -24 0 -409 0 -409 23 -21 c23 -21 30 -22 274 -22
265 0 290 4 354 48 135 96 149 295 28 418 l-41 42 18 33 c13 24 19 56 19 104
0 59 -5 79 -30 125 -33 60 -96 114 -153 130 -20 5 -128 10 -240 10 -202 0
-203 0 -227 -25z m456 -173 c39 -43 39 -90 2 -132 -23 -25 -39 -33 -85 -39
-32 -4 -67 -16 -78 -26 -27 -25 -27 -82 2 -112 19 -20 31 -23 100 -23 94 0
141 -17 162 -59 20 -38 20 -64 1 -101 -28 -53 -55 -60 -250 -60 l-175 0 0 288
c0 159 3 292 7 296 4 4 70 6 146 4 l139 -3 29 -33z"/>
<path d="M6845 2380 c-101 -31 -196 -124 -236 -230 -20 -53 -79 -488 -79 -586
0 -55 33 -87 85 -82 66 5 71 20 104 315 31 271 42 317 89 367 30 31 95 65 127
66 107 1 196 -93 211 -225 l7 -55 -155 0 c-149 0 -155 -1 -176 -23 -29 -31
-29 -87 -1 -113 18 -17 42 -20 187 -24 l167 -5 16 -135 c19 -150 30 -170 96
-170 35 0 83 36 83 62 0 58 -73 566 -86 600 -25 62 -79 142 -117 171 -71 54
-118 70 -207 73 -47 2 -98 -1 -115 -6z"/>
<path d="M8152 2367 c-22 -23 -22 -29 -22 -316 0 -186 -4 -290 -10 -286 -5 3
-107 131 -226 283 -119 152 -228 287 -243 299 -31 28 -105 31 -139 7 -51 -35
-52 -45 -52 -449 l0 -376 25 -24 c24 -25 65 -32 99 -19 37 14 41 43 46 336 l5
287 220 -281 c121 -154 233 -291 248 -304 34 -28 100 -33 135 -8 51 35 52 45
52 449 l0 376 -25 24 c-32 33 -83 34 -113 2z"/>
<path d="M8610 2381 c-86 -26 -164 -93 -208 -176 -27 -50 -27 -51 -27 -270 l0
-220 36 -65 c23 -43 52 -78 85 -102 79 -61 114 -68 315 -68 l178 0 20 26 c28
36 27 79 -4 109 -23 24 -28 25 -179 25 -160 0 -195 6 -235 43 -50 46 -61 90
-60 247 0 195 17 241 104 281 33 15 66 19 193 19 149 0 154 1 177 25 16 15 25
36 25 55 0 19 -9 40 -25 55 -24 25 -26 25 -197 24 -95 0 -184 -4 -198 -8z"/>
<path d="M9325 2377 c-110 -37 -194 -108 -242 -205 -28 -56 -28 -60 -28 -237
0 -179 0 -180 29 -240 37 -74 108 -145 183 -182 53 -26 67 -28 168 -28 104 0
114 2 176 32 80 39 150 111 187 191 26 55 27 64 27 227 0 163 -1 172 -27 227
-37 80 -107 152 -186 190 -56 28 -77 33 -156 35 -56 2 -106 -2 -131 -10z m225
-180 c29 -14 57 -40 78 -71 l32 -48 0 -142 c0 -140 0 -143 -29 -188 -79 -124
-245 -142 -352 -39 -61 59 -72 100 -67 252 3 112 4 119 33 160 75 105 191 135
305 76z"/>
</g>
</svg>
